<?xml version="1.0" encoding="UTF-8"?>
<svg id="Capa_1" data-name="Capa 1" xmlns="http://www.w3.org/2000/svg" viewBox="0 0 800 800">
  <defs>
    <style>
      .cls-1 {
        fill: #d30032;
      }
    </style>
  </defs>
  <path class="cls-1" d="M795.57,327.42c-128.71,272.58-170.58,272.58-195.57,272.58h-246.15c-86.22,0-152.28-50.71-168.31-129.23-.49-2.4-49.23-241.63-61.69-308.46-6.12-32.77-21.69-54.62-77.69-54.62C20.65,107.69,0,87.05,0,61.54S20.65,15.38,46.15,15.38c92.92,0,152.74,46.15,168.43,129.97,12.34,66.12,60.92,304.55,61.42,306.98,9.82,48.18,52.98,55.38,77.85,55.38h234c25.14-27.02,82.43-131.11,124.25-219.72,10.89-23.05,38.43-32.86,61.45-22.03,23.08,10.86,32.92,38.37,22.03,61.45ZM323.08,630.77c-42.49,0-76.92,34.43-76.92,76.92s34.43,76.92,76.92,76.92,76.92-34.43,76.92-76.92-34.43-76.92-76.92-76.92ZM600,630.77c-42.49,0-76.92,34.43-76.92,76.92s34.43,76.92,76.92,76.92,76.92-34.43,76.92-76.92-34.43-76.92-76.92-76.92ZM451.17,379.82c3.08,2.49,6.86,3.69,10.65,3.69s7.51-1.2,10.65-3.69c3.08-2.43,87.02-84.31,132.8-152.43,3.54-5.29,3.88-12.06.86-17.66-2.92-5.57-8.77-9.08-15.08-9.08h-68.49s-6.68-132.03-11.05-138.15c-6.34-9.05-32.52-15.2-49.72-15.2s-43.91,6.15-50.28,15.2c-4.34,6.09-10.09,138.15-10.09,138.15h-69.38c-6.34,0-12.15,3.51-15.14,9.08-2.98,5.6-2.65,12.4.86,17.66,45.82,68.15,130.37,150,133.42,152.43Z"/>
</svg>