<?xml version="1.0" encoding="UTF-8"?>
<svg id="Capa_1" xmlns="http://www.w3.org/2000/svg" version="1.1" viewBox="0 0 800 800">
  <!-- Generator: Adobe Illustrator 30.1.0, SVG Export Plug-In . SVG Version: 2.1.1 Build 136)  -->
  <path d="M795.6,327.4c-128.7,272.6-170.6,272.6-195.6,272.6h-246.2c-86.2,0-152.3-50.7-168.3-129.2-.5-2.4-49.2-241.6-61.7-308.5-6.1-32.8-21.7-54.6-77.7-54.6S0,87,0,61.5,20.6,15.4,46.2,15.4c92.9,0,152.7,46.2,168.4,130,12.3,66.1,60.9,304.6,61.4,307,9.8,48.2,53,55.4,77.8,55.4h234c25.1-27,82.4-131.1,124.2-219.7,10.9-23,38.4-32.9,61.4-22,23.1,10.9,32.9,38.4,22,61.4ZM323.1,630.8c-42.5,0-76.9,34.4-76.9,76.9s34.4,76.9,76.9,76.9,76.9-34.4,76.9-76.9-34.4-76.9-76.9-76.9ZM600,630.8c-42.5,0-76.9,34.4-76.9,76.9s34.4,76.9,76.9,76.9,76.9-34.4,76.9-76.9-34.4-76.9-76.9-76.9ZM451.2,379.8c3.1,2.5,6.9,3.7,10.6,3.7s7.5-1.2,10.6-3.7c3.1-2.4,87-84.3,132.8-152.4,3.5-5.3,3.9-12.1.9-17.7-2.9-5.6-8.8-9.1-15.1-9.1h-68.5s-6.7-132-11-138.2c-6.3-9-32.5-15.2-49.7-15.2s-43.9,6.2-50.3,15.2c-4.3,6.1-10.1,138.2-10.1,138.2h-69.4c-6.3,0-12.2,3.5-15.1,9.1-3,5.6-2.6,12.4.9,17.7,45.8,68.2,130.4,150,133.4,152.4Z"/>
</svg>