<?xml version="1.0" encoding="UTF-8"?>
<svg id="Layer_1" xmlns="http://www.w3.org/2000/svg" version="1.1" xmlns:sketch="http://www.bohemiancoding.com/sketch/ns" viewBox="0 0 800 800">
  <!-- Generator: Adobe Illustrator 30.1.0, SVG Export Plug-In . SVG Version: 2.1.1 Build 136)  -->
  <defs>
    <style>
      .st0 {
        fill: #fff;
        fill-rule: evenodd;
      }
    </style>
  </defs>
  <g id="Page-1" sketch:type="MSPage">
    <g id="Icon-Set-Filled" sketch:type="MSLayerGroup">
      <path id="cart" class="st0" d="M249.3,225L186.9,25H25C11.2,25,0,36.2,0,50s11.2,25,25,25h125l50.3,150h-.3l50,300c0,55.2,44.8,100,100,100h275c55.2,0,100-44.8,100-100l75-300H249.3ZM600,675c-27.6,0-50,22.4-50,50s22.4,50,50,50,50-22.4,50-50-22.4-50-50-50h0ZM350,675c-27.6,0-50,22.4-50,50s22.4,50,50,50,50-22.4,50-50-22.4-50-50-50h0Z" sketch:type="MSShapeGroup"/>
    </g>
  </g>
</svg>