<?xml version="1.0" encoding="UTF-8"?>
<svg id="Layer_1" xmlns="http://www.w3.org/2000/svg" version="1.1" viewBox="0 0 800 800">
  <!-- Generator: Adobe Illustrator 30.1.0, SVG Export Plug-In . SVG Version: 2.1.1 Build 136)  -->
  <defs>
    <style>
      .st0 {
        fill: #fff;
        fill-rule: evenodd;
      }
    </style>
  </defs>
  <g id="Page-1">
    <g id="Dribbble-Light-Preview">
      <g id="icons">
        <path id="pinterest-_x5B__x23_180_x5D_" class="st0" d="M395,0C176,0,0,177.4,0,398.3s96.3,301.2,235.7,364.8c0-74.7-.5-65.1,56.4-308-31.3-63.1-7-167.3,63.1-167.3s31.2,144.1,19.9,200.8c-10,43.5,23.2,77,63.1,77,76.4,0,126.1-97.1,126.1-210.9s-59.7-150.6-162.6-150.6c-183,0-229.4,203.8-166,267.8,16,24.2,0,25.3,0,56.9-11.1,33.4-99.6-15.2-99.6-140.6s93-247.7,282.2-247.7,249,110.4,249,227.6-86.3,271.1-212.4,271.1-83-23.4-96.3-50.2c-24.1,93.8-29,141.4-66.4,194.1,36.5,10,73,16.7,112.9,16.7,219.1,0,395-177.4,395-398.3C790.1,177.4,614.1,0,395,0"/>
      </g>
    </g>
  </g>
</svg>