<?xml version="1.0" encoding="UTF-8"?>
<svg id="Layer_1" xmlns="http://www.w3.org/2000/svg" version="1.1" viewBox="0 0 800 800">
  <!-- Generator: Adobe Illustrator 30.1.0, SVG Export Plug-In . SVG Version: 2.1.1 Build 136)  -->
  <defs>
    <style>
      .st0 {
        fill: #fff;
        fill-rule: evenodd;
      }
    </style>
  </defs>
  <g id="_x37_935ec95c421cee6d86eb22ecd125aef">
    <path class="st0" d="M182,781.6V266.6H10.9v514.9h171.1ZM96.5,196.4c59.7,0,96.8-39.6,96.8-89-1.1-50.5-37.2-89-95.7-89-58.6,0-96.8,38.5-96.8,89s37.1,89,94.6,89h1.1ZM276.8,781.6s2.2-466.6,0-514.9h171.2v74.7h-1.1c22.5-35.1,63.1-86.8,155.4-86.8s197.1,73.6,197.1,231.8v295.3h-171.1v-275.5c0-69.2-24.8-116.5-86.7-116.5s-75.4,31.8-87.8,62.6c-4.5,11-5.6,26.3-5.6,41.7v287.6h-171.2Z"/>
  </g>
</svg>