<?xml version="1.0" encoding="UTF-8"?>
<svg id="Layer_1" xmlns="http://www.w3.org/2000/svg" version="1.1" viewBox="0 0 757.6 263.4">
  <!-- Generator: Adobe Illustrator 30.1.0, SVG Export Plug-In . SVG Version: 2.1.1 Build 136)  -->
  <defs>
    <style>
      .st0 {
        fill: #fff;
      }
    </style>
  </defs>
  <g>
    <path class="st0" d="M205.1,180.4c0-4.3-1.1-5.7-4.6-5.7s-4.3,1.4-5.4,6.4c-6.4,29.7-25.4,62.9-72.2,62.9h-34.3c-4.6,0-7.2-2.1-7.2-8.2v-62.1H31.8v62.1c0,6.1-2.5,8.2-7.1,8.2H4.3c-2.5,0-4.3,1.4-4.3,3.9s1.8,3.9,4.3,3.9h175.1c10.7,0,14.3,1.4,17.5,1.4s4.6-1.1,4.6-4.6-.7-6.8-.7-15.4c0-18.2,4.3-43.2,4.3-52.9h0ZM196.9,7.9c0-3.2-1.1-4.3-4.6-4.3s-11.1,1.8-36.1,1.8H4.3c-2.5,0-4.3,1.4-4.3,3.9s1.8,3.9,4.3,3.9h20.4c4.6,0,7.1,2.1,7.1,8.2v47.5h49.7V21.4c0-6.1,2.5-8.2,7.2-8.2h34.3c32.2,0,57.2,9.3,65,48.6,1.1,5,2.9,6.4,5.4,6.4s4.3-1.8,4.3-5.4c0-9.3-.7-29.3-.7-55h0Z"/>
    <path class="st0" d="M334.8,5.4h-114.3c-2.5,0-4.3,1.4-4.3,3.9s1.8,3.9,4.3,3.9h2.5c17.9,0,29.7,7.9,39,30.7l10.3,25h54.5c-9.7-24.6-14-37.4-14-45s4.3-10.7,12.5-10.7h9.6c2.5,0,4.3-1.4,4.3-3.9s-1.8-3.9-4.3-3.9h0ZM489.2,5.4h-76.1c-2.5,0-4.3,1.4-4.3,3.9s1.8,3.9,4.3,3.9h7.1c10.4,0,17.5,6.8,17.1,18.6-.3,10.7-2.9,21.7-8.6,37.2h9.3l4.4-10.8c14.6-36.5,28.2-45,45-45h1.8c2.5,0,4.3-1.4,4.3-3.9s-1.8-3.9-4.3-3.9h0ZM386.6,173.8l-8.9,22-8.9-22h-53.6l36,87.8c1.1,2.5,7.5,2.5,8.6,0l35.6-87.8h-8.9Z"/>
    <path class="st0" d="M703.6,173.8c-9.9,56.1-39.9,76.7-78,76.7s-68.5-18.7-78.2-76.7h-53.8c18.5,56.7,72.9,84.9,132,84.9s113.5-28.2,132-84.9h-54ZM625.7,8.2c34.2,0,62,16.6,74.4,60.8h51.1C728.4,22.9,678.9,0,625.7,0s-102.7,22.9-125.5,69h51.1c12.4-44.2,40.2-60.8,74.4-60.8Z"/>
  </g>
  <g>
    <path class="st0" d="M205.4,145.8v-52.4h31.6v5.6h-25.3v17.5h23.6v5.6h-23.6v18h25.7v5.6h-32Z"/>
    <path class="st0" d="M261.6,93.4l15.5,44.1h.6l15.5-44.1h6.6l-19.2,52.4h-6.5l-19.3-52.4h6.7Z"/>
    <path class="st0" d="M337.8,146.5c-4.5,0-8.4-1.1-11.9-3.3-3.5-2.2-6.2-5.3-8.2-9.3s-3-8.8-3-14.3,1-10.3,3-14.3,4.8-7.1,8.2-9.3,7.5-3.3,11.9-3.3,8.5,1.1,11.9,3.3,6.2,5.3,8.2,9.3,3,8.8,3,14.3-1,10.3-3,14.3-4.7,7.1-8.2,9.3-7.4,3.3-11.9,3.3h0ZM337.8,140.6c3.2,0,6-.8,8.6-2.4s4.6-4,6.1-7.1,2.3-6.9,2.3-11.5-.8-8.4-2.3-11.5-3.5-5.5-6.1-7.1-5.4-2.4-8.6-2.4-6,.8-8.6,2.4c-2.6,1.6-4.6,4-6.1,7.1s-2.3,7-2.3,11.5.8,8.3,2.3,11.5c1.5,3.1,3.6,5.5,6.1,7.1,2.6,1.6,5.5,2.4,8.6,2.4Z"/>
    <path class="st0" d="M382.5,145.8v-52.4h17.7c4.1,0,7.5.7,10.1,2.2s4.5,3.5,5.8,6,1.9,5.3,1.9,8.4-.6,5.9-1.9,8.4-3.2,4.5-5.8,6-6,2.2-10,2.2h-12.7v-5.6h12.5c2.8,0,5.1-.5,6.8-1.4s3-2.3,3.7-4,1.2-3.6,1.2-5.6-.4-4-1.2-5.6-2-2.9-3.7-3.9-4-1.4-6.8-1.4h-11.2v46.8h-6.3Z"/>
    <path class="st0" d="M445.6,93.4v52.4h-6.3v-52.4s6.3,0,6.3,0Z"/>
    <path class="st0" d="M471.5,145.8h-6.7l19.3-52.4h6.5l19.2,52.4h-6.6l-15.7-44.1h-.4l-15.6,44.1h0ZM473.9,125.3h26.8v5.6h-26.8s0-5.6,0-5.6Z"/>
  </g>
</svg>