<?xml version="1.0" encoding="UTF-8"?>
<svg id="Layer_1" data-name="Layer 1" xmlns="http://www.w3.org/2000/svg" viewBox="0 0 800 800">
  <defs>
    <style>
      .cls-1 {
        fill: #53808c;
        fill-rule: evenodd;
      }
    </style>
  </defs>
  <g id="Page-1">
    <g id="Dribbble-Light-Preview">
      <g id="icons">
        <path id="pinterest-_180_" data-name="pinterest-[#180]" class="cls-1" d="M395.04,0C175.96,0,0,177.38,0,398.34c0,164,96.28,301.23,235.72,364.84,0-74.71-.52-65.08,56.4-307.97-31.28-63.12-6.96-167.34,63.08-167.34,97.2,0,31.16,144.12,19.92,200.82-9.96,43.54,23.24,77.01,63.08,77.01,76.36,0,126.12-97.09,126.12-210.88,0-87.05-59.72-150.64-162.64-150.64-183,0-229.4,203.81-165.96,267.77,15.96,24.16,0,25.29,0,56.91-11.08,33.44-99.6-15.16-99.6-140.57,0-113.83,92.96-247.7,282.16-247.7,149.36,0,248.96,110.43,248.96,227.62,0,157.3-86.32,271.13-212.44,271.13-43.16,0-83-23.44-96.28-50.23-24.12,93.83-29,141.39-66.4,194.14,36.52,10.04,73.04,16.74,112.88,16.74,219.08,0,395-177.38,395-398.3C790.08,177.38,614.12,0,395.04,0"/>
      </g>
    </g>
  </g>
</svg>