<?xml version="1.0" encoding="UTF-8"?>
<svg id="Layer_1" data-name="Layer 1" xmlns="http://www.w3.org/2000/svg" viewBox="0 0 800 800">
  <defs>
    <style>
      .cls-1 {
        fill: #53808c;
        fill-rule: evenodd;
      }
    </style>
  </defs>
  <g id="_7935ec95c421cee6d86eb22ecd125aef" data-name="7935ec95c421cee6d86eb22ecd125aef">
    <path class="cls-1" d="M182.04,781.59V266.65H10.9v514.94h171.14ZM96.49,196.37c59.66,0,96.82-39.57,96.82-88.99-1.13-50.51-37.16-88.97-95.71-88.97-58.55,0-96.82,38.46-96.82,88.97s37.14,88.99,94.58,88.99h1.13ZM276.76,781.59s2.25-466.63,0-514.94h171.17v74.68h-1.14c22.51-35.14,63.05-86.77,155.38-86.77,112.63,0,197.06,73.6,197.06,231.77v295.27h-171.14v-275.48c0-69.22-24.76-116.45-86.71-116.45-47.27,0-75.44,31.84-87.82,62.63-4.53,10.96-5.63,26.35-5.63,41.74v287.57h-171.17Z"/>
  </g>
</svg>