<?xml version="1.0" encoding="UTF-8"?>
<svg id="Layer_1" xmlns="http://www.w3.org/2000/svg" version="1.1" viewBox="0 0 800 800">
  <!-- Generator: Adobe Illustrator 30.1.0, SVG Export Plug-In . SVG Version: 2.1.1 Build 136)  -->
  <path d="M663.3,76.9c-5.4-13.7-24.6-13.7-30,0l-14.3,36.5c-1.6,4.2-4.9,7.5-9.1,9.1l-36.4,14.4c-13.6,5.4-13.6,24.7,0,30.1l36.4,14.4c4.2,1.6,7.4,4.9,9.1,9.1l14.3,36.5c5.4,13.7,24.6,13.7,30,0l14.3-36.5c1.6-4.2,4.9-7.5,9.1-9.1l36.4-14.4c13.6-5.4,13.6-24.7,0-30.1l-36.4-14.4c-4.2-1.6-7.4-4.9-9.1-9.1l-14.3-36.5Z"/>
  <path d="M534.4,271c-5.4-13.7-24.6-13.7-30,0l-5.2,13.3c-1.6,4.2-4.9,7.5-9.1,9.1l-13.3,5.3c-13.6,5.4-13.6,24.7,0,30.1l13.3,5.2c4.2,1.6,7.4,4.9,9.1,9.1l5.2,13.3c5.4,13.7,24.6,13.7,30,0l5.2-13.3c1.6-4.2,4.9-7.5,9.1-9.1l13.3-5.2c13.6-5.4,13.6-24.7,0-30.1l-13.3-5.3c-4.2-1.6-7.4-4.9-9.1-9.1l-5.2-13.3Z"/>
  <path d="M400,733.3c184.1,0,333.3-149.2,333.3-333.3s-23.1-18-31.1-4.8c-37.9,62.8-106.9,104.8-185.6,104.8-119.7,0-216.7-97-216.7-216.7s42-147.6,104.8-185.6c13.2-8,10.6-31.1-4.8-31.1-184.1,0-333.3,149.2-333.3,333.3s149.2,333.3,333.3,333.3Z"/>
</svg>